<svg width="18" height="16" viewBox="0 0 18 16" fill="none" xmlns="http://www.w3.org/2000/svg">
<path fill-rule="evenodd" clip-rule="evenodd" d="M2.33333 7.66671C2.33333 4.72119 4.72114 2.33337 7.66666 2.33337C10.6122 2.33337 13 4.72119 13 7.66671C13 10.6122 10.6122 13 7.66666 13C4.72114 13 2.33333 10.6122 2.33333 7.66671ZM7.66666 0.333374C3.61657 0.333374 0.333328 3.61662 0.333328 7.66671C0.333328 11.7168 3.61657 15 7.66666 15C9.6081 15 11.3733 14.2456 12.6852 13.0139L16.4 15.8C16.8418 16.1314 17.4686 16.0419 17.8 15.6C18.1314 15.1582 18.0418 14.5314 17.6 14.2L13.9448 11.4586C14.6145 10.3522 15 9.05446 15 7.66671C15 3.61662 11.7167 0.333374 7.66666 0.333374Z" fill="black" fill-opacity="0.4"/>
</svg>
